M48
;GenerationSoftware,Autodesk,EAGLE,9.6.1*%
;CreationDate,2021-02-13T14:57:59Z*%
FMAT,2
ICI,OFF
METRIC,TZ,000.000
T5C0.500
T4C0.800
T3C1.016
T2C1.295
T1C3.556
%
G90
M71
T1
X33020Y17145
X64770Y21590
X45720Y8255
X33020Y8255
X58420Y8255
X45720Y17145
X58420Y17145
X52070Y21590
X39370Y21590
X26670Y21590
X52070Y3810
X39370Y3810
X26670Y3810
X64770Y3810
X52070Y12700
X39370Y12700
X26670Y12700
X64770Y12700
T2
X7620Y318
X2540Y318
X7937Y14129
X2857Y14129
X1905Y20003
X-3175Y20003
X-3175Y25082
X1905Y6350
X-3175Y6350
X-3175Y11430
T3
X11430Y2540
X80645Y21590
X80645Y5715
X74930Y19050
X74930Y16510
X74930Y6350
X74930Y8890
X74930Y13970
X74930Y11430
X11430Y10160
X11430Y15240
X11430Y7620
X11430Y5080
X11430Y22860
X11430Y17780
X11430Y20320
T4
X8176Y25198
X4524Y21792
X8176Y11228
X4524Y7822
T5
X-5080Y3810
X-6350Y3810
X-6350Y16510
X18098Y19526
X-6350Y21590
X-6350Y8890
X18415Y6985
X-7620Y21590
X-5080Y21590
X-7620Y16510
X-5080Y16510
X-5080Y8890
X-7620Y8890
X-7620Y3810
X13176Y12700
X11906Y12700
X10636Y12700
X19526Y19526
X19685Y6985
X13176Y25717
X11747Y25717
X10319Y25717
X21590Y17780
M30