G04 EAGLE Gerber RS-274X export*
G75*
%MOMM*%
%FSLAX34Y34*%
%LPD*%
%IN*%
%IPPOS*%
%AMOC8*
5,1,8,0,0,1.08239X$1,22.5*%
G01*
%ADD10C,0.254000*%


D10*
X-104775Y12700D02*
X-104606Y10420D01*
X-104239Y8164D01*
X-103677Y5948D01*
X-102924Y3789D01*
X-101985Y1704D01*
X-100869Y-291D01*
X-99583Y-2181D01*
X-98137Y-3951D01*
X-96542Y-5589D01*
X-94810Y-7082D01*
X-92955Y-8418D01*
X-90991Y-9588D01*
X-88932Y-10581D01*
X-86794Y-11392D01*
X-84594Y-12013D01*
X-82348Y-12440D01*
X-80073Y-12670D01*
X-77788Y-12700D01*
X152400Y-12700D01*
X152400Y0D01*
X825500Y0D01*
X838200Y12700D01*
X838200Y50800D01*
X850900Y63500D01*
X965200Y63500D01*
X990600Y88900D01*
X990600Y165100D01*
X965200Y190500D01*
X850900Y190500D01*
X838200Y203200D01*
X838200Y241300D01*
X825500Y254000D01*
X152400Y254000D01*
X152400Y266700D01*
X-82550Y266700D01*
X-84619Y266471D01*
X-86661Y266063D01*
X-88659Y265478D01*
X-90599Y264721D01*
X-92465Y263798D01*
X-94244Y262716D01*
X-95921Y261483D01*
X-97485Y260109D01*
X-98923Y258603D01*
X-100224Y256978D01*
X-101379Y255245D01*
X-102378Y253419D01*
X-103215Y251512D01*
X-103882Y249540D01*
X-104374Y247517D01*
X-104689Y245459D01*
X-104823Y243381D01*
X-104775Y241300D01*
X-104775Y12700D01*
X665480Y126418D02*
X665404Y125256D01*
X665252Y124102D01*
X665025Y122960D01*
X664724Y121836D01*
X664349Y120734D01*
X663904Y119658D01*
X663389Y118614D01*
X662807Y117606D01*
X662160Y116638D01*
X661452Y115714D01*
X660684Y114839D01*
X659861Y114016D01*
X658986Y113249D01*
X658062Y112540D01*
X657094Y111893D01*
X656086Y111311D01*
X655042Y110796D01*
X653966Y110351D01*
X652864Y109977D01*
X651740Y109675D01*
X650598Y109448D01*
X649444Y109296D01*
X648282Y109220D01*
X647118Y109220D01*
X645956Y109296D01*
X644802Y109448D01*
X643660Y109675D01*
X642536Y109977D01*
X641434Y110351D01*
X640358Y110796D01*
X639314Y111311D01*
X638306Y111893D01*
X637338Y112540D01*
X636414Y113249D01*
X635539Y114016D01*
X634716Y114839D01*
X633949Y115714D01*
X633240Y116638D01*
X632593Y117606D01*
X632011Y118614D01*
X631496Y119658D01*
X631051Y120734D01*
X630677Y121836D01*
X630375Y122960D01*
X630148Y124102D01*
X629996Y125256D01*
X629920Y126418D01*
X629920Y127582D01*
X629996Y128744D01*
X630148Y129898D01*
X630375Y131040D01*
X630677Y132164D01*
X631051Y133266D01*
X631496Y134342D01*
X632011Y135386D01*
X632593Y136394D01*
X633240Y137362D01*
X633949Y138286D01*
X634716Y139161D01*
X635539Y139984D01*
X636414Y140752D01*
X637338Y141460D01*
X638306Y142107D01*
X639314Y142689D01*
X640358Y143204D01*
X641434Y143649D01*
X642536Y144024D01*
X643660Y144325D01*
X644802Y144552D01*
X645956Y144704D01*
X647118Y144780D01*
X648282Y144780D01*
X649444Y144704D01*
X650598Y144552D01*
X651740Y144325D01*
X652864Y144024D01*
X653966Y143649D01*
X655042Y143204D01*
X656086Y142689D01*
X657094Y142107D01*
X658062Y141460D01*
X658986Y140752D01*
X659861Y139984D01*
X660684Y139161D01*
X661452Y138286D01*
X662160Y137362D01*
X662807Y136394D01*
X663389Y135386D01*
X663904Y134342D01*
X664349Y133266D01*
X664724Y132164D01*
X665025Y131040D01*
X665252Y129898D01*
X665404Y128744D01*
X665480Y127582D01*
X665480Y126418D01*
X284480Y126418D02*
X284404Y125256D01*
X284252Y124102D01*
X284025Y122960D01*
X283724Y121836D01*
X283349Y120734D01*
X282904Y119658D01*
X282389Y118614D01*
X281807Y117606D01*
X281160Y116638D01*
X280452Y115714D01*
X279684Y114839D01*
X278861Y114016D01*
X277986Y113249D01*
X277062Y112540D01*
X276094Y111893D01*
X275086Y111311D01*
X274042Y110796D01*
X272966Y110351D01*
X271864Y109977D01*
X270740Y109675D01*
X269598Y109448D01*
X268444Y109296D01*
X267282Y109220D01*
X266118Y109220D01*
X264956Y109296D01*
X263802Y109448D01*
X262660Y109675D01*
X261536Y109977D01*
X260434Y110351D01*
X259358Y110796D01*
X258314Y111311D01*
X257306Y111893D01*
X256338Y112540D01*
X255414Y113249D01*
X254539Y114016D01*
X253716Y114839D01*
X252949Y115714D01*
X252240Y116638D01*
X251593Y117606D01*
X251011Y118614D01*
X250496Y119658D01*
X250051Y120734D01*
X249677Y121836D01*
X249375Y122960D01*
X249148Y124102D01*
X248996Y125256D01*
X248920Y126418D01*
X248920Y127582D01*
X248996Y128744D01*
X249148Y129898D01*
X249375Y131040D01*
X249677Y132164D01*
X250051Y133266D01*
X250496Y134342D01*
X251011Y135386D01*
X251593Y136394D01*
X252240Y137362D01*
X252949Y138286D01*
X253716Y139161D01*
X254539Y139984D01*
X255414Y140752D01*
X256338Y141460D01*
X257306Y142107D01*
X258314Y142689D01*
X259358Y143204D01*
X260434Y143649D01*
X261536Y144024D01*
X262660Y144325D01*
X263802Y144552D01*
X264956Y144704D01*
X266118Y144780D01*
X267282Y144780D01*
X268444Y144704D01*
X269598Y144552D01*
X270740Y144325D01*
X271864Y144024D01*
X272966Y143649D01*
X274042Y143204D01*
X275086Y142689D01*
X276094Y142107D01*
X277062Y141460D01*
X277986Y140752D01*
X278861Y139984D01*
X279684Y139161D01*
X280452Y138286D01*
X281160Y137362D01*
X281807Y136394D01*
X282389Y135386D01*
X282904Y134342D01*
X283349Y133266D01*
X283724Y132164D01*
X284025Y131040D01*
X284252Y129898D01*
X284404Y128744D01*
X284480Y127582D01*
X284480Y126418D01*
X411480Y126418D02*
X411404Y125256D01*
X411252Y124102D01*
X411025Y122960D01*
X410724Y121836D01*
X410349Y120734D01*
X409904Y119658D01*
X409389Y118614D01*
X408807Y117606D01*
X408160Y116638D01*
X407452Y115714D01*
X406684Y114839D01*
X405861Y114016D01*
X404986Y113249D01*
X404062Y112540D01*
X403094Y111893D01*
X402086Y111311D01*
X401042Y110796D01*
X399966Y110351D01*
X398864Y109977D01*
X397740Y109675D01*
X396598Y109448D01*
X395444Y109296D01*
X394282Y109220D01*
X393118Y109220D01*
X391956Y109296D01*
X390802Y109448D01*
X389660Y109675D01*
X388536Y109977D01*
X387434Y110351D01*
X386358Y110796D01*
X385314Y111311D01*
X384306Y111893D01*
X383338Y112540D01*
X382414Y113249D01*
X381539Y114016D01*
X380716Y114839D01*
X379949Y115714D01*
X379240Y116638D01*
X378593Y117606D01*
X378011Y118614D01*
X377496Y119658D01*
X377051Y120734D01*
X376677Y121836D01*
X376375Y122960D01*
X376148Y124102D01*
X375996Y125256D01*
X375920Y126418D01*
X375920Y127582D01*
X375996Y128744D01*
X376148Y129898D01*
X376375Y131040D01*
X376677Y132164D01*
X377051Y133266D01*
X377496Y134342D01*
X378011Y135386D01*
X378593Y136394D01*
X379240Y137362D01*
X379949Y138286D01*
X380716Y139161D01*
X381539Y139984D01*
X382414Y140752D01*
X383338Y141460D01*
X384306Y142107D01*
X385314Y142689D01*
X386358Y143204D01*
X387434Y143649D01*
X388536Y144024D01*
X389660Y144325D01*
X390802Y144552D01*
X391956Y144704D01*
X393118Y144780D01*
X394282Y144780D01*
X395444Y144704D01*
X396598Y144552D01*
X397740Y144325D01*
X398864Y144024D01*
X399966Y143649D01*
X401042Y143204D01*
X402086Y142689D01*
X403094Y142107D01*
X404062Y141460D01*
X404986Y140752D01*
X405861Y139984D01*
X406684Y139161D01*
X407452Y138286D01*
X408160Y137362D01*
X408807Y136394D01*
X409389Y135386D01*
X409904Y134342D01*
X410349Y133266D01*
X410724Y132164D01*
X411025Y131040D01*
X411252Y129898D01*
X411404Y128744D01*
X411480Y127582D01*
X411480Y126418D01*
X538480Y126418D02*
X538404Y125256D01*
X538252Y124102D01*
X538025Y122960D01*
X537724Y121836D01*
X537349Y120734D01*
X536904Y119658D01*
X536389Y118614D01*
X535807Y117606D01*
X535160Y116638D01*
X534452Y115714D01*
X533684Y114839D01*
X532861Y114016D01*
X531986Y113249D01*
X531062Y112540D01*
X530094Y111893D01*
X529086Y111311D01*
X528042Y110796D01*
X526966Y110351D01*
X525864Y109977D01*
X524740Y109675D01*
X523598Y109448D01*
X522444Y109296D01*
X521282Y109220D01*
X520118Y109220D01*
X518956Y109296D01*
X517802Y109448D01*
X516660Y109675D01*
X515536Y109977D01*
X514434Y110351D01*
X513358Y110796D01*
X512314Y111311D01*
X511306Y111893D01*
X510338Y112540D01*
X509414Y113249D01*
X508539Y114016D01*
X507716Y114839D01*
X506949Y115714D01*
X506240Y116638D01*
X505593Y117606D01*
X505011Y118614D01*
X504496Y119658D01*
X504051Y120734D01*
X503677Y121836D01*
X503375Y122960D01*
X503148Y124102D01*
X502996Y125256D01*
X502920Y126418D01*
X502920Y127582D01*
X502996Y128744D01*
X503148Y129898D01*
X503375Y131040D01*
X503677Y132164D01*
X504051Y133266D01*
X504496Y134342D01*
X505011Y135386D01*
X505593Y136394D01*
X506240Y137362D01*
X506949Y138286D01*
X507716Y139161D01*
X508539Y139984D01*
X509414Y140752D01*
X510338Y141460D01*
X511306Y142107D01*
X512314Y142689D01*
X513358Y143204D01*
X514434Y143649D01*
X515536Y144024D01*
X516660Y144325D01*
X517802Y144552D01*
X518956Y144704D01*
X520118Y144780D01*
X521282Y144780D01*
X522444Y144704D01*
X523598Y144552D01*
X524740Y144325D01*
X525864Y144024D01*
X526966Y143649D01*
X528042Y143204D01*
X529086Y142689D01*
X530094Y142107D01*
X531062Y141460D01*
X531986Y140752D01*
X532861Y139984D01*
X533684Y139161D01*
X534452Y138286D01*
X535160Y137362D01*
X535807Y136394D01*
X536389Y135386D01*
X536904Y134342D01*
X537349Y133266D01*
X537724Y132164D01*
X538025Y131040D01*
X538252Y129898D01*
X538404Y128744D01*
X538480Y127582D01*
X538480Y126418D01*
X665480Y37518D02*
X665404Y36356D01*
X665252Y35202D01*
X665025Y34060D01*
X664724Y32936D01*
X664349Y31834D01*
X663904Y30758D01*
X663389Y29714D01*
X662807Y28706D01*
X662160Y27738D01*
X661452Y26814D01*
X660684Y25939D01*
X659861Y25116D01*
X658986Y24349D01*
X658062Y23640D01*
X657094Y22993D01*
X656086Y22411D01*
X655042Y21896D01*
X653966Y21451D01*
X652864Y21077D01*
X651740Y20775D01*
X650598Y20548D01*
X649444Y20396D01*
X648282Y20320D01*
X647118Y20320D01*
X645956Y20396D01*
X644802Y20548D01*
X643660Y20775D01*
X642536Y21077D01*
X641434Y21451D01*
X640358Y21896D01*
X639314Y22411D01*
X638306Y22993D01*
X637338Y23640D01*
X636414Y24349D01*
X635539Y25116D01*
X634716Y25939D01*
X633949Y26814D01*
X633240Y27738D01*
X632593Y28706D01*
X632011Y29714D01*
X631496Y30758D01*
X631051Y31834D01*
X630677Y32936D01*
X630375Y34060D01*
X630148Y35202D01*
X629996Y36356D01*
X629920Y37518D01*
X629920Y38682D01*
X629996Y39844D01*
X630148Y40998D01*
X630375Y42140D01*
X630677Y43264D01*
X631051Y44366D01*
X631496Y45442D01*
X632011Y46486D01*
X632593Y47494D01*
X633240Y48462D01*
X633949Y49386D01*
X634716Y50261D01*
X635539Y51084D01*
X636414Y51852D01*
X637338Y52560D01*
X638306Y53207D01*
X639314Y53789D01*
X640358Y54304D01*
X641434Y54749D01*
X642536Y55124D01*
X643660Y55425D01*
X644802Y55652D01*
X645956Y55804D01*
X647118Y55880D01*
X648282Y55880D01*
X649444Y55804D01*
X650598Y55652D01*
X651740Y55425D01*
X652864Y55124D01*
X653966Y54749D01*
X655042Y54304D01*
X656086Y53789D01*
X657094Y53207D01*
X658062Y52560D01*
X658986Y51852D01*
X659861Y51084D01*
X660684Y50261D01*
X661452Y49386D01*
X662160Y48462D01*
X662807Y47494D01*
X663389Y46486D01*
X663904Y45442D01*
X664349Y44366D01*
X664724Y43264D01*
X665025Y42140D01*
X665252Y40998D01*
X665404Y39844D01*
X665480Y38682D01*
X665480Y37518D01*
X284480Y37518D02*
X284404Y36356D01*
X284252Y35202D01*
X284025Y34060D01*
X283724Y32936D01*
X283349Y31834D01*
X282904Y30758D01*
X282389Y29714D01*
X281807Y28706D01*
X281160Y27738D01*
X280452Y26814D01*
X279684Y25939D01*
X278861Y25116D01*
X277986Y24349D01*
X277062Y23640D01*
X276094Y22993D01*
X275086Y22411D01*
X274042Y21896D01*
X272966Y21451D01*
X271864Y21077D01*
X270740Y20775D01*
X269598Y20548D01*
X268444Y20396D01*
X267282Y20320D01*
X266118Y20320D01*
X264956Y20396D01*
X263802Y20548D01*
X262660Y20775D01*
X261536Y21077D01*
X260434Y21451D01*
X259358Y21896D01*
X258314Y22411D01*
X257306Y22993D01*
X256338Y23640D01*
X255414Y24349D01*
X254539Y25116D01*
X253716Y25939D01*
X252949Y26814D01*
X252240Y27738D01*
X251593Y28706D01*
X251011Y29714D01*
X250496Y30758D01*
X250051Y31834D01*
X249677Y32936D01*
X249375Y34060D01*
X249148Y35202D01*
X248996Y36356D01*
X248920Y37518D01*
X248920Y38682D01*
X248996Y39844D01*
X249148Y40998D01*
X249375Y42140D01*
X249677Y43264D01*
X250051Y44366D01*
X250496Y45442D01*
X251011Y46486D01*
X251593Y47494D01*
X252240Y48462D01*
X252949Y49386D01*
X253716Y50261D01*
X254539Y51084D01*
X255414Y51852D01*
X256338Y52560D01*
X257306Y53207D01*
X258314Y53789D01*
X259358Y54304D01*
X260434Y54749D01*
X261536Y55124D01*
X262660Y55425D01*
X263802Y55652D01*
X264956Y55804D01*
X266118Y55880D01*
X267282Y55880D01*
X268444Y55804D01*
X269598Y55652D01*
X270740Y55425D01*
X271864Y55124D01*
X272966Y54749D01*
X274042Y54304D01*
X275086Y53789D01*
X276094Y53207D01*
X277062Y52560D01*
X277986Y51852D01*
X278861Y51084D01*
X279684Y50261D01*
X280452Y49386D01*
X281160Y48462D01*
X281807Y47494D01*
X282389Y46486D01*
X282904Y45442D01*
X283349Y44366D01*
X283724Y43264D01*
X284025Y42140D01*
X284252Y40998D01*
X284404Y39844D01*
X284480Y38682D01*
X284480Y37518D01*
X411480Y37518D02*
X411404Y36356D01*
X411252Y35202D01*
X411025Y34060D01*
X410724Y32936D01*
X410349Y31834D01*
X409904Y30758D01*
X409389Y29714D01*
X408807Y28706D01*
X408160Y27738D01*
X407452Y26814D01*
X406684Y25939D01*
X405861Y25116D01*
X404986Y24349D01*
X404062Y23640D01*
X403094Y22993D01*
X402086Y22411D01*
X401042Y21896D01*
X399966Y21451D01*
X398864Y21077D01*
X397740Y20775D01*
X396598Y20548D01*
X395444Y20396D01*
X394282Y20320D01*
X393118Y20320D01*
X391956Y20396D01*
X390802Y20548D01*
X389660Y20775D01*
X388536Y21077D01*
X387434Y21451D01*
X386358Y21896D01*
X385314Y22411D01*
X384306Y22993D01*
X383338Y23640D01*
X382414Y24349D01*
X381539Y25116D01*
X380716Y25939D01*
X379949Y26814D01*
X379240Y27738D01*
X378593Y28706D01*
X378011Y29714D01*
X377496Y30758D01*
X377051Y31834D01*
X376677Y32936D01*
X376375Y34060D01*
X376148Y35202D01*
X375996Y36356D01*
X375920Y37518D01*
X375920Y38682D01*
X375996Y39844D01*
X376148Y40998D01*
X376375Y42140D01*
X376677Y43264D01*
X377051Y44366D01*
X377496Y45442D01*
X378011Y46486D01*
X378593Y47494D01*
X379240Y48462D01*
X379949Y49386D01*
X380716Y50261D01*
X381539Y51084D01*
X382414Y51852D01*
X383338Y52560D01*
X384306Y53207D01*
X385314Y53789D01*
X386358Y54304D01*
X387434Y54749D01*
X388536Y55124D01*
X389660Y55425D01*
X390802Y55652D01*
X391956Y55804D01*
X393118Y55880D01*
X394282Y55880D01*
X395444Y55804D01*
X396598Y55652D01*
X397740Y55425D01*
X398864Y55124D01*
X399966Y54749D01*
X401042Y54304D01*
X402086Y53789D01*
X403094Y53207D01*
X404062Y52560D01*
X404986Y51852D01*
X405861Y51084D01*
X406684Y50261D01*
X407452Y49386D01*
X408160Y48462D01*
X408807Y47494D01*
X409389Y46486D01*
X409904Y45442D01*
X410349Y44366D01*
X410724Y43264D01*
X411025Y42140D01*
X411252Y40998D01*
X411404Y39844D01*
X411480Y38682D01*
X411480Y37518D01*
X538480Y37518D02*
X538404Y36356D01*
X538252Y35202D01*
X538025Y34060D01*
X537724Y32936D01*
X537349Y31834D01*
X536904Y30758D01*
X536389Y29714D01*
X535807Y28706D01*
X535160Y27738D01*
X534452Y26814D01*
X533684Y25939D01*
X532861Y25116D01*
X531986Y24349D01*
X531062Y23640D01*
X530094Y22993D01*
X529086Y22411D01*
X528042Y21896D01*
X526966Y21451D01*
X525864Y21077D01*
X524740Y20775D01*
X523598Y20548D01*
X522444Y20396D01*
X521282Y20320D01*
X520118Y20320D01*
X518956Y20396D01*
X517802Y20548D01*
X516660Y20775D01*
X515536Y21077D01*
X514434Y21451D01*
X513358Y21896D01*
X512314Y22411D01*
X511306Y22993D01*
X510338Y23640D01*
X509414Y24349D01*
X508539Y25116D01*
X507716Y25939D01*
X506949Y26814D01*
X506240Y27738D01*
X505593Y28706D01*
X505011Y29714D01*
X504496Y30758D01*
X504051Y31834D01*
X503677Y32936D01*
X503375Y34060D01*
X503148Y35202D01*
X502996Y36356D01*
X502920Y37518D01*
X502920Y38682D01*
X502996Y39844D01*
X503148Y40998D01*
X503375Y42140D01*
X503677Y43264D01*
X504051Y44366D01*
X504496Y45442D01*
X505011Y46486D01*
X505593Y47494D01*
X506240Y48462D01*
X506949Y49386D01*
X507716Y50261D01*
X508539Y51084D01*
X509414Y51852D01*
X510338Y52560D01*
X511306Y53207D01*
X512314Y53789D01*
X513358Y54304D01*
X514434Y54749D01*
X515536Y55124D01*
X516660Y55425D01*
X517802Y55652D01*
X518956Y55804D01*
X520118Y55880D01*
X521282Y55880D01*
X522444Y55804D01*
X523598Y55652D01*
X524740Y55425D01*
X525864Y55124D01*
X526966Y54749D01*
X528042Y54304D01*
X529086Y53789D01*
X530094Y53207D01*
X531062Y52560D01*
X531986Y51852D01*
X532861Y51084D01*
X533684Y50261D01*
X534452Y49386D01*
X535160Y48462D01*
X535807Y47494D01*
X536389Y46486D01*
X536904Y45442D01*
X537349Y44366D01*
X537724Y43264D01*
X538025Y42140D01*
X538252Y40998D01*
X538404Y39844D01*
X538480Y38682D01*
X538480Y37518D01*
X284480Y215318D02*
X284404Y214156D01*
X284252Y213002D01*
X284025Y211860D01*
X283724Y210736D01*
X283349Y209634D01*
X282904Y208558D01*
X282389Y207514D01*
X281807Y206506D01*
X281160Y205538D01*
X280452Y204614D01*
X279684Y203739D01*
X278861Y202916D01*
X277986Y202149D01*
X277062Y201440D01*
X276094Y200793D01*
X275086Y200211D01*
X274042Y199696D01*
X272966Y199251D01*
X271864Y198877D01*
X270740Y198575D01*
X269598Y198348D01*
X268444Y198196D01*
X267282Y198120D01*
X266118Y198120D01*
X264956Y198196D01*
X263802Y198348D01*
X262660Y198575D01*
X261536Y198877D01*
X260434Y199251D01*
X259358Y199696D01*
X258314Y200211D01*
X257306Y200793D01*
X256338Y201440D01*
X255414Y202149D01*
X254539Y202916D01*
X253716Y203739D01*
X252949Y204614D01*
X252240Y205538D01*
X251593Y206506D01*
X251011Y207514D01*
X250496Y208558D01*
X250051Y209634D01*
X249677Y210736D01*
X249375Y211860D01*
X249148Y213002D01*
X248996Y214156D01*
X248920Y215318D01*
X248920Y216482D01*
X248996Y217644D01*
X249148Y218798D01*
X249375Y219940D01*
X249677Y221064D01*
X250051Y222166D01*
X250496Y223242D01*
X251011Y224286D01*
X251593Y225294D01*
X252240Y226262D01*
X252949Y227186D01*
X253716Y228061D01*
X254539Y228884D01*
X255414Y229652D01*
X256338Y230360D01*
X257306Y231007D01*
X258314Y231589D01*
X259358Y232104D01*
X260434Y232549D01*
X261536Y232924D01*
X262660Y233225D01*
X263802Y233452D01*
X264956Y233604D01*
X266118Y233680D01*
X267282Y233680D01*
X268444Y233604D01*
X269598Y233452D01*
X270740Y233225D01*
X271864Y232924D01*
X272966Y232549D01*
X274042Y232104D01*
X275086Y231589D01*
X276094Y231007D01*
X277062Y230360D01*
X277986Y229652D01*
X278861Y228884D01*
X279684Y228061D01*
X280452Y227186D01*
X281160Y226262D01*
X281807Y225294D01*
X282389Y224286D01*
X282904Y223242D01*
X283349Y222166D01*
X283724Y221064D01*
X284025Y219940D01*
X284252Y218798D01*
X284404Y217644D01*
X284480Y216482D01*
X284480Y215318D01*
X411480Y215318D02*
X411404Y214156D01*
X411252Y213002D01*
X411025Y211860D01*
X410724Y210736D01*
X410349Y209634D01*
X409904Y208558D01*
X409389Y207514D01*
X408807Y206506D01*
X408160Y205538D01*
X407452Y204614D01*
X406684Y203739D01*
X405861Y202916D01*
X404986Y202149D01*
X404062Y201440D01*
X403094Y200793D01*
X402086Y200211D01*
X401042Y199696D01*
X399966Y199251D01*
X398864Y198877D01*
X397740Y198575D01*
X396598Y198348D01*
X395444Y198196D01*
X394282Y198120D01*
X393118Y198120D01*
X391956Y198196D01*
X390802Y198348D01*
X389660Y198575D01*
X388536Y198877D01*
X387434Y199251D01*
X386358Y199696D01*
X385314Y200211D01*
X384306Y200793D01*
X383338Y201440D01*
X382414Y202149D01*
X381539Y202916D01*
X380716Y203739D01*
X379949Y204614D01*
X379240Y205538D01*
X378593Y206506D01*
X378011Y207514D01*
X377496Y208558D01*
X377051Y209634D01*
X376677Y210736D01*
X376375Y211860D01*
X376148Y213002D01*
X375996Y214156D01*
X375920Y215318D01*
X375920Y216482D01*
X375996Y217644D01*
X376148Y218798D01*
X376375Y219940D01*
X376677Y221064D01*
X377051Y222166D01*
X377496Y223242D01*
X378011Y224286D01*
X378593Y225294D01*
X379240Y226262D01*
X379949Y227186D01*
X380716Y228061D01*
X381539Y228884D01*
X382414Y229652D01*
X383338Y230360D01*
X384306Y231007D01*
X385314Y231589D01*
X386358Y232104D01*
X387434Y232549D01*
X388536Y232924D01*
X389660Y233225D01*
X390802Y233452D01*
X391956Y233604D01*
X393118Y233680D01*
X394282Y233680D01*
X395444Y233604D01*
X396598Y233452D01*
X397740Y233225D01*
X398864Y232924D01*
X399966Y232549D01*
X401042Y232104D01*
X402086Y231589D01*
X403094Y231007D01*
X404062Y230360D01*
X404986Y229652D01*
X405861Y228884D01*
X406684Y228061D01*
X407452Y227186D01*
X408160Y226262D01*
X408807Y225294D01*
X409389Y224286D01*
X409904Y223242D01*
X410349Y222166D01*
X410724Y221064D01*
X411025Y219940D01*
X411252Y218798D01*
X411404Y217644D01*
X411480Y216482D01*
X411480Y215318D01*
X538480Y215318D02*
X538404Y214156D01*
X538252Y213002D01*
X538025Y211860D01*
X537724Y210736D01*
X537349Y209634D01*
X536904Y208558D01*
X536389Y207514D01*
X535807Y206506D01*
X535160Y205538D01*
X534452Y204614D01*
X533684Y203739D01*
X532861Y202916D01*
X531986Y202149D01*
X531062Y201440D01*
X530094Y200793D01*
X529086Y200211D01*
X528042Y199696D01*
X526966Y199251D01*
X525864Y198877D01*
X524740Y198575D01*
X523598Y198348D01*
X522444Y198196D01*
X521282Y198120D01*
X520118Y198120D01*
X518956Y198196D01*
X517802Y198348D01*
X516660Y198575D01*
X515536Y198877D01*
X514434Y199251D01*
X513358Y199696D01*
X512314Y200211D01*
X511306Y200793D01*
X510338Y201440D01*
X509414Y202149D01*
X508539Y202916D01*
X507716Y203739D01*
X506949Y204614D01*
X506240Y205538D01*
X505593Y206506D01*
X505011Y207514D01*
X504496Y208558D01*
X504051Y209634D01*
X503677Y210736D01*
X503375Y211860D01*
X503148Y213002D01*
X502996Y214156D01*
X502920Y215318D01*
X502920Y216482D01*
X502996Y217644D01*
X503148Y218798D01*
X503375Y219940D01*
X503677Y221064D01*
X504051Y222166D01*
X504496Y223242D01*
X505011Y224286D01*
X505593Y225294D01*
X506240Y226262D01*
X506949Y227186D01*
X507716Y228061D01*
X508539Y228884D01*
X509414Y229652D01*
X510338Y230360D01*
X511306Y231007D01*
X512314Y231589D01*
X513358Y232104D01*
X514434Y232549D01*
X515536Y232924D01*
X516660Y233225D01*
X517802Y233452D01*
X518956Y233604D01*
X520118Y233680D01*
X521282Y233680D01*
X522444Y233604D01*
X523598Y233452D01*
X524740Y233225D01*
X525864Y232924D01*
X526966Y232549D01*
X528042Y232104D01*
X529086Y231589D01*
X530094Y231007D01*
X531062Y230360D01*
X531986Y229652D01*
X532861Y228884D01*
X533684Y228061D01*
X534452Y227186D01*
X535160Y226262D01*
X535807Y225294D01*
X536389Y224286D01*
X536904Y223242D01*
X537349Y222166D01*
X537724Y221064D01*
X538025Y219940D01*
X538252Y218798D01*
X538404Y217644D01*
X538480Y216482D01*
X538480Y215318D01*
X601980Y170868D02*
X601904Y169706D01*
X601752Y168552D01*
X601525Y167410D01*
X601224Y166286D01*
X600849Y165184D01*
X600404Y164108D01*
X599889Y163064D01*
X599307Y162056D01*
X598660Y161088D01*
X597952Y160164D01*
X597184Y159289D01*
X596361Y158466D01*
X595486Y157699D01*
X594562Y156990D01*
X593594Y156343D01*
X592586Y155761D01*
X591542Y155246D01*
X590466Y154801D01*
X589364Y154427D01*
X588240Y154125D01*
X587098Y153898D01*
X585944Y153746D01*
X584782Y153670D01*
X583618Y153670D01*
X582456Y153746D01*
X581302Y153898D01*
X580160Y154125D01*
X579036Y154427D01*
X577934Y154801D01*
X576858Y155246D01*
X575814Y155761D01*
X574806Y156343D01*
X573838Y156990D01*
X572914Y157699D01*
X572039Y158466D01*
X571216Y159289D01*
X570449Y160164D01*
X569740Y161088D01*
X569093Y162056D01*
X568511Y163064D01*
X567996Y164108D01*
X567551Y165184D01*
X567177Y166286D01*
X566875Y167410D01*
X566648Y168552D01*
X566496Y169706D01*
X566420Y170868D01*
X566420Y172032D01*
X566496Y173194D01*
X566648Y174348D01*
X566875Y175490D01*
X567177Y176614D01*
X567551Y177716D01*
X567996Y178792D01*
X568511Y179836D01*
X569093Y180844D01*
X569740Y181812D01*
X570449Y182736D01*
X571216Y183611D01*
X572039Y184434D01*
X572914Y185202D01*
X573838Y185910D01*
X574806Y186557D01*
X575814Y187139D01*
X576858Y187654D01*
X577934Y188099D01*
X579036Y188474D01*
X580160Y188775D01*
X581302Y189002D01*
X582456Y189154D01*
X583618Y189230D01*
X584782Y189230D01*
X585944Y189154D01*
X587098Y189002D01*
X588240Y188775D01*
X589364Y188474D01*
X590466Y188099D01*
X591542Y187654D01*
X592586Y187139D01*
X593594Y186557D01*
X594562Y185910D01*
X595486Y185202D01*
X596361Y184434D01*
X597184Y183611D01*
X597952Y182736D01*
X598660Y181812D01*
X599307Y180844D01*
X599889Y179836D01*
X600404Y178792D01*
X600849Y177716D01*
X601224Y176614D01*
X601525Y175490D01*
X601752Y174348D01*
X601904Y173194D01*
X601980Y172032D01*
X601980Y170868D01*
X347980Y170868D02*
X347904Y169706D01*
X347752Y168552D01*
X347525Y167410D01*
X347224Y166286D01*
X346849Y165184D01*
X346404Y164108D01*
X345889Y163064D01*
X345307Y162056D01*
X344660Y161088D01*
X343952Y160164D01*
X343184Y159289D01*
X342361Y158466D01*
X341486Y157699D01*
X340562Y156990D01*
X339594Y156343D01*
X338586Y155761D01*
X337542Y155246D01*
X336466Y154801D01*
X335364Y154427D01*
X334240Y154125D01*
X333098Y153898D01*
X331944Y153746D01*
X330782Y153670D01*
X329618Y153670D01*
X328456Y153746D01*
X327302Y153898D01*
X326160Y154125D01*
X325036Y154427D01*
X323934Y154801D01*
X322858Y155246D01*
X321814Y155761D01*
X320806Y156343D01*
X319838Y156990D01*
X318914Y157699D01*
X318039Y158466D01*
X317216Y159289D01*
X316449Y160164D01*
X315740Y161088D01*
X315093Y162056D01*
X314511Y163064D01*
X313996Y164108D01*
X313551Y165184D01*
X313177Y166286D01*
X312875Y167410D01*
X312648Y168552D01*
X312496Y169706D01*
X312420Y170868D01*
X312420Y172032D01*
X312496Y173194D01*
X312648Y174348D01*
X312875Y175490D01*
X313177Y176614D01*
X313551Y177716D01*
X313996Y178792D01*
X314511Y179836D01*
X315093Y180844D01*
X315740Y181812D01*
X316449Y182736D01*
X317216Y183611D01*
X318039Y184434D01*
X318914Y185202D01*
X319838Y185910D01*
X320806Y186557D01*
X321814Y187139D01*
X322858Y187654D01*
X323934Y188099D01*
X325036Y188474D01*
X326160Y188775D01*
X327302Y189002D01*
X328456Y189154D01*
X329618Y189230D01*
X330782Y189230D01*
X331944Y189154D01*
X333098Y189002D01*
X334240Y188775D01*
X335364Y188474D01*
X336466Y188099D01*
X337542Y187654D01*
X338586Y187139D01*
X339594Y186557D01*
X340562Y185910D01*
X341486Y185202D01*
X342361Y184434D01*
X343184Y183611D01*
X343952Y182736D01*
X344660Y181812D01*
X345307Y180844D01*
X345889Y179836D01*
X346404Y178792D01*
X346849Y177716D01*
X347224Y176614D01*
X347525Y175490D01*
X347752Y174348D01*
X347904Y173194D01*
X347980Y172032D01*
X347980Y170868D01*
X474980Y170868D02*
X474904Y169706D01*
X474752Y168552D01*
X474525Y167410D01*
X474224Y166286D01*
X473849Y165184D01*
X473404Y164108D01*
X472889Y163064D01*
X472307Y162056D01*
X471660Y161088D01*
X470952Y160164D01*
X470184Y159289D01*
X469361Y158466D01*
X468486Y157699D01*
X467562Y156990D01*
X466594Y156343D01*
X465586Y155761D01*
X464542Y155246D01*
X463466Y154801D01*
X462364Y154427D01*
X461240Y154125D01*
X460098Y153898D01*
X458944Y153746D01*
X457782Y153670D01*
X456618Y153670D01*
X455456Y153746D01*
X454302Y153898D01*
X453160Y154125D01*
X452036Y154427D01*
X450934Y154801D01*
X449858Y155246D01*
X448814Y155761D01*
X447806Y156343D01*
X446838Y156990D01*
X445914Y157699D01*
X445039Y158466D01*
X444216Y159289D01*
X443449Y160164D01*
X442740Y161088D01*
X442093Y162056D01*
X441511Y163064D01*
X440996Y164108D01*
X440551Y165184D01*
X440177Y166286D01*
X439875Y167410D01*
X439648Y168552D01*
X439496Y169706D01*
X439420Y170868D01*
X439420Y172032D01*
X439496Y173194D01*
X439648Y174348D01*
X439875Y175490D01*
X440177Y176614D01*
X440551Y177716D01*
X440996Y178792D01*
X441511Y179836D01*
X442093Y180844D01*
X442740Y181812D01*
X443449Y182736D01*
X444216Y183611D01*
X445039Y184434D01*
X445914Y185202D01*
X446838Y185910D01*
X447806Y186557D01*
X448814Y187139D01*
X449858Y187654D01*
X450934Y188099D01*
X452036Y188474D01*
X453160Y188775D01*
X454302Y189002D01*
X455456Y189154D01*
X456618Y189230D01*
X457782Y189230D01*
X458944Y189154D01*
X460098Y189002D01*
X461240Y188775D01*
X462364Y188474D01*
X463466Y188099D01*
X464542Y187654D01*
X465586Y187139D01*
X466594Y186557D01*
X467562Y185910D01*
X468486Y185202D01*
X469361Y184434D01*
X470184Y183611D01*
X470952Y182736D01*
X471660Y181812D01*
X472307Y180844D01*
X472889Y179836D01*
X473404Y178792D01*
X473849Y177716D01*
X474224Y176614D01*
X474525Y175490D01*
X474752Y174348D01*
X474904Y173194D01*
X474980Y172032D01*
X474980Y170868D01*
X601980Y81968D02*
X601904Y80806D01*
X601752Y79652D01*
X601525Y78510D01*
X601224Y77386D01*
X600849Y76284D01*
X600404Y75208D01*
X599889Y74164D01*
X599307Y73156D01*
X598660Y72188D01*
X597952Y71264D01*
X597184Y70389D01*
X596361Y69566D01*
X595486Y68799D01*
X594562Y68090D01*
X593594Y67443D01*
X592586Y66861D01*
X591542Y66346D01*
X590466Y65901D01*
X589364Y65527D01*
X588240Y65225D01*
X587098Y64998D01*
X585944Y64846D01*
X584782Y64770D01*
X583618Y64770D01*
X582456Y64846D01*
X581302Y64998D01*
X580160Y65225D01*
X579036Y65527D01*
X577934Y65901D01*
X576858Y66346D01*
X575814Y66861D01*
X574806Y67443D01*
X573838Y68090D01*
X572914Y68799D01*
X572039Y69566D01*
X571216Y70389D01*
X570449Y71264D01*
X569740Y72188D01*
X569093Y73156D01*
X568511Y74164D01*
X567996Y75208D01*
X567551Y76284D01*
X567177Y77386D01*
X566875Y78510D01*
X566648Y79652D01*
X566496Y80806D01*
X566420Y81968D01*
X566420Y83132D01*
X566496Y84294D01*
X566648Y85448D01*
X566875Y86590D01*
X567177Y87714D01*
X567551Y88816D01*
X567996Y89892D01*
X568511Y90936D01*
X569093Y91944D01*
X569740Y92912D01*
X570449Y93836D01*
X571216Y94711D01*
X572039Y95534D01*
X572914Y96302D01*
X573838Y97010D01*
X574806Y97657D01*
X575814Y98239D01*
X576858Y98754D01*
X577934Y99199D01*
X579036Y99574D01*
X580160Y99875D01*
X581302Y100102D01*
X582456Y100254D01*
X583618Y100330D01*
X584782Y100330D01*
X585944Y100254D01*
X587098Y100102D01*
X588240Y99875D01*
X589364Y99574D01*
X590466Y99199D01*
X591542Y98754D01*
X592586Y98239D01*
X593594Y97657D01*
X594562Y97010D01*
X595486Y96302D01*
X596361Y95534D01*
X597184Y94711D01*
X597952Y93836D01*
X598660Y92912D01*
X599307Y91944D01*
X599889Y90936D01*
X600404Y89892D01*
X600849Y88816D01*
X601224Y87714D01*
X601525Y86590D01*
X601752Y85448D01*
X601904Y84294D01*
X601980Y83132D01*
X601980Y81968D01*
X347980Y81968D02*
X347904Y80806D01*
X347752Y79652D01*
X347525Y78510D01*
X347224Y77386D01*
X346849Y76284D01*
X346404Y75208D01*
X345889Y74164D01*
X345307Y73156D01*
X344660Y72188D01*
X343952Y71264D01*
X343184Y70389D01*
X342361Y69566D01*
X341486Y68799D01*
X340562Y68090D01*
X339594Y67443D01*
X338586Y66861D01*
X337542Y66346D01*
X336466Y65901D01*
X335364Y65527D01*
X334240Y65225D01*
X333098Y64998D01*
X331944Y64846D01*
X330782Y64770D01*
X329618Y64770D01*
X328456Y64846D01*
X327302Y64998D01*
X326160Y65225D01*
X325036Y65527D01*
X323934Y65901D01*
X322858Y66346D01*
X321814Y66861D01*
X320806Y67443D01*
X319838Y68090D01*
X318914Y68799D01*
X318039Y69566D01*
X317216Y70389D01*
X316449Y71264D01*
X315740Y72188D01*
X315093Y73156D01*
X314511Y74164D01*
X313996Y75208D01*
X313551Y76284D01*
X313177Y77386D01*
X312875Y78510D01*
X312648Y79652D01*
X312496Y80806D01*
X312420Y81968D01*
X312420Y83132D01*
X312496Y84294D01*
X312648Y85448D01*
X312875Y86590D01*
X313177Y87714D01*
X313551Y88816D01*
X313996Y89892D01*
X314511Y90936D01*
X315093Y91944D01*
X315740Y92912D01*
X316449Y93836D01*
X317216Y94711D01*
X318039Y95534D01*
X318914Y96302D01*
X319838Y97010D01*
X320806Y97657D01*
X321814Y98239D01*
X322858Y98754D01*
X323934Y99199D01*
X325036Y99574D01*
X326160Y99875D01*
X327302Y100102D01*
X328456Y100254D01*
X329618Y100330D01*
X330782Y100330D01*
X331944Y100254D01*
X333098Y100102D01*
X334240Y99875D01*
X335364Y99574D01*
X336466Y99199D01*
X337542Y98754D01*
X338586Y98239D01*
X339594Y97657D01*
X340562Y97010D01*
X341486Y96302D01*
X342361Y95534D01*
X343184Y94711D01*
X343952Y93836D01*
X344660Y92912D01*
X345307Y91944D01*
X345889Y90936D01*
X346404Y89892D01*
X346849Y88816D01*
X347224Y87714D01*
X347525Y86590D01*
X347752Y85448D01*
X347904Y84294D01*
X347980Y83132D01*
X347980Y81968D01*
X474980Y81968D02*
X474904Y80806D01*
X474752Y79652D01*
X474525Y78510D01*
X474224Y77386D01*
X473849Y76284D01*
X473404Y75208D01*
X472889Y74164D01*
X472307Y73156D01*
X471660Y72188D01*
X470952Y71264D01*
X470184Y70389D01*
X469361Y69566D01*
X468486Y68799D01*
X467562Y68090D01*
X466594Y67443D01*
X465586Y66861D01*
X464542Y66346D01*
X463466Y65901D01*
X462364Y65527D01*
X461240Y65225D01*
X460098Y64998D01*
X458944Y64846D01*
X457782Y64770D01*
X456618Y64770D01*
X455456Y64846D01*
X454302Y64998D01*
X453160Y65225D01*
X452036Y65527D01*
X450934Y65901D01*
X449858Y66346D01*
X448814Y66861D01*
X447806Y67443D01*
X446838Y68090D01*
X445914Y68799D01*
X445039Y69566D01*
X444216Y70389D01*
X443449Y71264D01*
X442740Y72188D01*
X442093Y73156D01*
X441511Y74164D01*
X440996Y75208D01*
X440551Y76284D01*
X440177Y77386D01*
X439875Y78510D01*
X439648Y79652D01*
X439496Y80806D01*
X439420Y81968D01*
X439420Y83132D01*
X439496Y84294D01*
X439648Y85448D01*
X439875Y86590D01*
X440177Y87714D01*
X440551Y88816D01*
X440996Y89892D01*
X441511Y90936D01*
X442093Y91944D01*
X442740Y92912D01*
X443449Y93836D01*
X444216Y94711D01*
X445039Y95534D01*
X445914Y96302D01*
X446838Y97010D01*
X447806Y97657D01*
X448814Y98239D01*
X449858Y98754D01*
X450934Y99199D01*
X452036Y99574D01*
X453160Y99875D01*
X454302Y100102D01*
X455456Y100254D01*
X456618Y100330D01*
X457782Y100330D01*
X458944Y100254D01*
X460098Y100102D01*
X461240Y99875D01*
X462364Y99574D01*
X463466Y99199D01*
X464542Y98754D01*
X465586Y98239D01*
X466594Y97657D01*
X467562Y97010D01*
X468486Y96302D01*
X469361Y95534D01*
X470184Y94711D01*
X470952Y93836D01*
X471660Y92912D01*
X472307Y91944D01*
X472889Y90936D01*
X473404Y89892D01*
X473849Y88816D01*
X474224Y87714D01*
X474525Y86590D01*
X474752Y85448D01*
X474904Y84294D01*
X474980Y83132D01*
X474980Y81968D01*
X665480Y215318D02*
X665404Y214156D01*
X665252Y213002D01*
X665025Y211860D01*
X664724Y210736D01*
X664349Y209634D01*
X663904Y208558D01*
X663389Y207514D01*
X662807Y206506D01*
X662160Y205538D01*
X661452Y204614D01*
X660684Y203739D01*
X659861Y202916D01*
X658986Y202149D01*
X658062Y201440D01*
X657094Y200793D01*
X656086Y200211D01*
X655042Y199696D01*
X653966Y199251D01*
X652864Y198877D01*
X651740Y198575D01*
X650598Y198348D01*
X649444Y198196D01*
X648282Y198120D01*
X647118Y198120D01*
X645956Y198196D01*
X644802Y198348D01*
X643660Y198575D01*
X642536Y198877D01*
X641434Y199251D01*
X640358Y199696D01*
X639314Y200211D01*
X638306Y200793D01*
X637338Y201440D01*
X636414Y202149D01*
X635539Y202916D01*
X634716Y203739D01*
X633949Y204614D01*
X633240Y205538D01*
X632593Y206506D01*
X632011Y207514D01*
X631496Y208558D01*
X631051Y209634D01*
X630677Y210736D01*
X630375Y211860D01*
X630148Y213002D01*
X629996Y214156D01*
X629920Y215318D01*
X629920Y216482D01*
X629996Y217644D01*
X630148Y218798D01*
X630375Y219940D01*
X630677Y221064D01*
X631051Y222166D01*
X631496Y223242D01*
X632011Y224286D01*
X632593Y225294D01*
X633240Y226262D01*
X633949Y227186D01*
X634716Y228061D01*
X635539Y228884D01*
X636414Y229652D01*
X637338Y230360D01*
X638306Y231007D01*
X639314Y231589D01*
X640358Y232104D01*
X641434Y232549D01*
X642536Y232924D01*
X643660Y233225D01*
X644802Y233452D01*
X645956Y233604D01*
X647118Y233680D01*
X648282Y233680D01*
X649444Y233604D01*
X650598Y233452D01*
X651740Y233225D01*
X652864Y232924D01*
X653966Y232549D01*
X655042Y232104D01*
X656086Y231589D01*
X657094Y231007D01*
X658062Y230360D01*
X658986Y229652D01*
X659861Y228884D01*
X660684Y228061D01*
X661452Y227186D01*
X662160Y226262D01*
X662807Y225294D01*
X663389Y224286D01*
X663904Y223242D01*
X664349Y222166D01*
X664724Y221064D01*
X665025Y219940D01*
X665252Y218798D01*
X665404Y217644D01*
X665480Y216482D01*
X665480Y215318D01*
M02*
